<ttFont>
<head>
    <!-- Most of this table will be recalculated by the compiler -->
    <tableVersion value="1.0"/>
    <fontRevision value="1.0"/>
    <checkSumAdjustment value="0xc81a2ada"/>
    <magicNumber value="0x5f0f3cf5"/>
    <flags value="00000000 00001011"/>
    <unitsPerEm value="1024"/>
    <created value="Wed Jul 15 11:11:14 2015"/>
    <modified value="Thu Jul 16 15:34:21 2015"/>
    <xMin value="5"/>
    <yMin value="-215"/>
    <xMax value="915"/>
    <yMax value="670"/>
    <macStyle value="00000000 01000001"/>
    <lowestRecPPEM value="8"/>
    <fontDirectionHint value="2"/>
    <indexToLocFormat value="0"/>
    <glyphDataFormat value="0"/>
  </head>
          <CharString index="0">
            -36.2451171875 29.388671875 -29.388671875 36.2451171875 36.2451171875 29.388671875 29.388671875 36.2451171875 36.2451171875 -29.388671875 29.388671875 -36.2451171875 -36.2451171875 -29.388671875 -29.388671875 -36.2451171875 vhcurveto
            return
          </CharString>
        <CharString name=".notdef">
          -112 0 51 444 51 hstem
          51 51 308 51 vstem
          51 hmoveto
          410 546 -410 hlineto
          51 -495 rmoveto
          444 308 -444 vlineto
          endchar
        </CharString>
        <CharString name="si_DdI">
          400 endchar
        </CharString>
        <CharString name="si_DdIi">
          0 140 145 30 73.267578125 43.8994140625 25.8330078125 26 96 90 hstemhm
          45.8804931641 63.5111083984 -32.3916015625 61 159 31 49 34 106 44 -21.8564453125 58.8564453125 hintmask 1111110110100000
          258 315 rmoveto
          -243 -30 110 hlineto
          -53.951171875 -23.8017578125 -25.1683349609 -49.1982421875 0 -50 0 -80.8097076416 52.1033172607 -81.1902923584 101.016189575 0 51 0 33.4062042236 21.6860809326 29.5937957764 37.3139190674 21.6304321289 -30.4792480469 28.3972320557 -28.5458831787 64.6278839111 0 119.351821899 0 50.9926300049 111.025131226 0 130 0 106 -44.7841796875 79.765625 -71.2158203125 33.234375 rrcurveto
          hintmask 1111101111000000
          52 6 27 37 0 41 rrcurveto
          99 -117 27 -137 -132 -98 -31 -85 vhcurveto
          0 -96 107.995529175 5.89001464844 139.004470825 -5.89001464844 rrcurveto
          hintmask 1111110110100000
          118 -5 97.1435546875 -29 0 -130.782226562 rrcurveto
          -93.2177734375 -50.1435546875 -60 -75 -61 -25 24 36 vhcurveto
          21 -31 -21 vlineto
          -39 -34 -21 -58 -53.009765625 -42.5986328125 24 46 24 21.5654296875 51 93.04296875 vhcurveto
          71 hlineto
          99 -53 48.1669921875 -78.720703125 -42.1787109375 -47.8896484375 -19.1669921875 -39.8779296875 -22.1220703125 15.7890625 -15.736328125 24 vhcurveto
          16 0 15 6.736328125 10 18 15.203125 27.365234375 18.796875 0.90234375 9 0 rrcurveto
          34 0 25 -38.267578125 2 -35 rrcurveto
          153 210 rmoveto
          22 18 20 33 vhcurveto
          hintmask 1111100111000000
          27 28 -14 -31 -24 -22 -14 -32 -32 -20 18 23 hvcurveto
          -3 -46 rmoveto
          -34 7 -59.0020904541 1.9231262207 -41.9979095459 1.0768737793 rrcurveto
          hintmask 1111101110000000
          -117 3 -18 12 0 24 0 40 87 12 62 0 37.3330078125 0 36.333984375 -2.6669921875 33.3330078125 -3.3330078125 -13 -14 -4 -15.3330078125 0 -18.6669921875 0 -12 8 -25 23 -10 rrcurveto
          endchar
        </CharString>
        <CharString name="uni0D85">
          -51 -4 39 163 33 54 24 78 46 hstemhm
          33 154 124 33.0234375 11.9765625 32 -4 4 31.451171875 25.548828125 7 77 hintmask 1111110111000000
          430 198 rmoveto
          -19 0 -14 2 -13 3 rrcurveto
          32 vlineto
          7 -3 5 -1 11 0 27 0 18 25 0 35 0 23 -5.21130371094 14.8527984619 -11.7886962891 17.1472015381 -11 16 -4.548828125 14 0 17 0 1.9345703125 0.23046875 5.9970703125 0.318359375 2.068359375 rrcurveto
          18 15 19 3 rlineto
          -6 -3 -6 -4 0 -11 0 -34 84 -10 0 -78 rrcurveto
          -56 -48 -27 -51 vhcurveto
          34 226 rmoveto
          hintmask 1111111011000000
          -71 -30 -5 -44 0 -39 rrcurveto
          hintmask 1111110111000000
          -526 vlineto
          hintmask 1111111011000000
          -32 528 hlineto
          0 37 8 28 19 22 15.1258239746 17.5140991211 20.8741760254 12.1525726318 20 5.33332824707 rrcurveto
          84 -384 rmoveto
          -51 -34 -86 -21 -104 0 rrcurveto
          -164 -85 66 98 88 61 61 108 hvcurveto
          109 hlineto
          -1 39 -26 39 -40 0 -33 0 -8 -17 -6 -12 -6.8115234375 -13.623046875 -14.1884765625 -16.376953125 -28 0 rrcurveto
          -22 -20 16.66015625 24.33984375 41 48 23 57 84 49.0234375 -51 -92 hvcurveto
          0 -0.9970703125 -0.0087890625 -3 -0.0146484375 -1.0029296875 rrcurveto
          -35 hlineto
          -108 -14 -85 -36 -76 55 -53 93 hvcurveto
          83 0 62 17 43 33 rrcurveto
          endchar
        </CharString>
        <CharString name="uni0D89">
          -31 -160.272354126 24.8651275635 120.760742188 30.0712890625 38.5751953125 27.98046875 15.998046875 29.021484375 98 29.68359375 59.31640625 118.229797363 hstemhm
          32.7693023682 66.6506195068 73.1479034424 66.4321746826 -33 32 100 40 -15.947265625 76.9665679932 39.9806976318 65.0726623535 hintmask 1111111100110000
          273.107421875 15.4248046875 rmoveto
          -10.703125 0 -1.7255859375 -0.451171875 -11.6787109375 -0.9736328125 rrcurveto
          -30 vlineto
          9.5439453125 0.9091796875 0.169921875 0.4443359375 8.7548828125 0 rrcurveto
          66.9365234375 27.6474609375 -29.353515625 -39.3779296875 -32.6220703125 -22.669921875 -19.4072265625 -38.8935546875 -53.4892578125 -11.6689453125 21.4072265625 20 hvcurveto
          0 12.1015625 3.6689453125 11.349609375 0 5.548828125 rrcurveto
          17.2275390625 -16 9.3154296875 -15 -16.603515625 -18.8286590576 -11.7332458496 -25.4688720703 -63.3963775635 63.4733886719 -21.2168273926 62.3213653564 65.8528594971 74.8038635254 25.8339080811 59.8213195801 vhcurveto
          0 39.052520752 -21.6592559814 23.4991455078 -33.3600463867 6.06546020508 88.804977417 15.9053649902 71.2676849365 82.4939117432 0 105.890548706 rrcurveto
          154.940231323 -100.33631897 78.9997406006 -159.549758911 -143.441726685 -107.97555542 -75.3297576904 -135.921859741 -104.135681152 80.2306976318 -62.8424987793 107 vhcurveto
          hintmask 1111111011010000
          90 68 30 80 54 -34.21484375 36.68359375 -57.4296875 -46.35546875 -34 -35.419921875 -46.263671875 -40.4296875 35 -34.591796875 44.064453125 hvcurveto
          14.3896484375 0 15.5458984375 4.021484375 11 9 -16 -19 -30 -10.01953125 -48.4267578125 0 rrcurveto
          -85.5732421875 -46.580078125 52.01953125 51.134765625 82.865234375 68.580078125 46 117 127 67 -74 -86 -82 -59 -58.6923828125 -97.591796875 hvcurveto
          -17.5283203125 0 -14.998046875 2.1171875 -16.7744140625 0 rrcurveto
          14.892578125 209.575195312 rmoveto
          26.6669921875 23.3330078125 -21.345703125 -27.654296875 -26.654296875 -22.4091796875 -22.345703125 -27.5908203125 -26.6669921875 -23.3330078125 21.345703125 27.654296875 26.654296875 22.4091796875 22.345703125 27.5908203125 hvcurveto
          endchar
        </CharString>
        <CharString name="uni0D8A">
          -96 0 138 264.366210938 28.740234375 -20.1064453125 26 35.3662109375 28.740234375 4.474609375 28.052734375 41.947265625 28.052734375 hstemhm
          31 48 38.01953125 28.396484375 74.474609375 28.396484375 133.732421875 28.396484375 -4.416015625 76 2.890625 28.396484375 hintmask 1101111111010000
          410.416015625 468.34375 rmoveto
          20.5625 16.6748046875 16.6748046875 20.5625 20.5625 16.6748046875 -16.6748046875 -20.5625 -20.5625 -16.6748046875 -16.6748046875 -20.5625 vhcurveto
          -20.5625 -16.6748046875 16.6748046875 20.5625 hvcurveto
          -28.396484375 -0.34375 rmoveto
          -107 callsubr
          -236.603515625 70.34375 rmoveto
          20.5625 16.6748046875 16.6748046875 20.5625 20.5625 16.6748046875 -16.6748046875 -20.5625 -20.5625 -16.6748046875 -16.6748046875 -20.5625 -20.5625 -16.6748046875 16.6748046875 20.5625 vhcurveto
          -28.396484375 -0.34375 rmoveto
          -107 callsubr
          52.98046875 -116 rmoveto
          -75.8397064209 -39.4366455078 -63.1602935791 -60.0412445068 0 -109.522109985 rrcurveto
          -123.817810059 92.953918457 -89.1821899414 124.046081543 vhcurveto
          hintmask 1011111110110000
          135.523300171 98.4766998291 102 123 hvcurveto
          0 56.0039672852 -16.6494140625 45.3260955811 -35.8505859375 40.1699371338 -41.5 46.5 -55 24 -71 0 -8.7373046875 0 -1.2626953125 0 -5 -1 47 26 32.3330078125 19.6669921875 32.6669921875 27.3330078125 48.6405487061 40.6983337402 22.3594512939 24.3016662598 0 20 0 17 -16 18 -26 0 rrcurveto
          -50 0 -21.3768005371 -71.7432556152 -31.6231994629 -39.2567443848 -29 -36 -32.7369232178 -32.3031921387 -53.2630767822 -27.6968078613 rrcurveto
          -91 -166 rmoveto
          96 103 59 78 91.5947265625 54.4052734375 -49 -71 -100 -73 -53 -105 -108.018554688 -40.9814453125 60 58 vhcurveto
          endchar
        </CharString>
        <CharString name="uni0D8B">
          27 -161 63 366 28 87 48.5 hstem
          32 155 384 32 vstem
          539 268 rmoveto
          -184 hlineto
          -124 -44 -57.361328125 -93.638671875 -140 92 -75 115 82 95 64 103 hvcurveto
          32 hlineto
          -133 -123 -97 -152 -151 -145 99 161 111 89 86 143 vhcurveto
          240 hlineto
          -3 50 -45 37 -40 0 -20 0 -20.30078125 -5.8955078125 -13.69921875 -22.6044921875 -7.5458984375 -12.4501953125 -14.4541015625 -18.0498046875 -27 0 rrcurveto
          -32 -14 21.1823730469 19.8176269531 45 46 21.5 63 92.8717041016 70.2030792236 -61.5 -94 hvcurveto
          0 -1.65802001953 -0.0259552001953 -4.66717529297 -0.048828125 -1.6748046875 rrcurveto
          endchar
        </CharString>
        <CharString name="uni0D91">
          -29 0 140 135 27 57 47 -17 42.5 hstemhm
          45 63 153.0859375 34.060546875 -12.146484375 34 179 49 hintmask 11011101
          496 301 rmoveto
          -91 -64 -70 -153 -80 -91 9 58 vhcurveto
          0 20 11 16 16 10 23.28515625 14.5537109375 30.2744140625 7.4462890625 44.4404296875 0 rrcurveto
          62 hlineto
          0.1005859375 3.3876953125 0.0458984375 8.333984375 0 3.2783203125 rrcurveto
          73 -38.146484375 68.5 -88 vhcurveto
          hintmask 11101101
          -55 -50 -25.5 -47 -25.6318359375 20 -12.3681640625 18 hvcurveto
          26 0 12 11 7.5 23 rrcurveto
          hintmask 11011101
          5.24520874023 16.0853271484 17.2547912598 17.9146728516 23 0 37 0 31.0859375 -33 0 -48 0 -1.958984375 -0.00390625 -2 -0.08203125 -2.041015625 rrcurveto
          -10 hlineto
          -37.125 0 -41.1142578125 -11.80078125 -33.7607421875 -12.19921875 -26 -5 -18.873046875 -10.9951171875 -16.126953125 -14.0048828125 -23.224609375 -20.1689453125 -9.775390625 -32.1103515625 0 -30.720703125 rrcurveto
          -119 110 -46 121 183 86 117 128 vhcurveto
          0 70 -13.216796875 48.01171875 -38.783203125 66.98828125 -36.03515625 62.2421875 -70.96484375 71.7578125 -61 33 rrcurveto
          hintmask 11101011
          -27 -31 -15 -36 0 -50 0 -66 36.8442840576 -55 63.1557159424 0 43 0 30 20 15 31 rrcurveto
          13 -23 12 -36 0 -50 rrcurveto
          -367 -26 rmoveto
          162 0 -32 27 -243 0 0 -34 rlineto
          16 2.6669921875 26 3.3330078125 71 1 rrcurveto
          320 166 rmoveto
          -10 -25 -26 -10 -19 0 -44 0 -33 32.6669921875 0 49.3330078125 0 30 9 22 8 17 38 -28 47 -44 30 -44 rrcurveto
          endchar
        </CharString>
        <CharString name="uni0D94">
          12 0 138 87 31 29 29.9404296875 92.119140625 26.9404296875 119 26 hstem
          30 44 96 31 42 31.9404296875 16.0595703125 28 70 31 111 59 vstem
          274.940429688 361 rmoveto
          25.48046875 20.5791015625 20.5791015625 25.48046875 25.48046875 20.5791015625 -20.5791015625 -25.48046875 -25.48046875 -20.5791015625 -20.5791015625 -25.48046875 -25.48046875 -20.5791015625 20.5791015625 25.48046875 vhcurveto
          113.059570312 -30 rmoveto
          1 -2 0 -2 0 -1 rrcurveto
          -45 -41 -25 -53 -55 -39 28 53 vhcurveto
          0 3.0146484375 -0.126953125 16.9853515625 0 14 0 30 -8.263671875 14.421875 -10.609375 7.578125 -7 5 -7.9931640625 3.5 -19.0068359375 0 rrcurveto
          -74 -44 -99.5 -108 -97 48 -127 118 hvcurveto
          50 0 37 15 22 40 16 -39 44 -16 41 0 rrcurveto
          137 47 126.500579834 127.499420166 177.114547729 -102 147.885452271 -188 hvcurveto
          -127 0 -66 -48 -45 -65 rrcurveto
          34 hlineto
          46 56 57 31 99 0 rrcurveto
          160 73 -116 -114 -93 -32.44140625 -91 -95.55859375 -61 -23 32 33 hvcurveto
          4 -28 -3 vlineto
          -33.3330078125 -18 -33.6669921875 -69 -78 -52 60 81 50 24 74 47 19 6.275390625 -11 -20 vhcurveto
          0 -9.0654296875 -0.275390625 -18.71484375 0 -5.2197265625 rrcurveto
          -75 52 -39 74 71 53 40 65 59 -36 45 -62 -48 -31 -32 -42 -38 28.34375 -37 46.65625 vhcurveto
          44 0 21 31 5 15 rrcurveto
          endchar
        </CharString>
        <CharString name="uni0D9A">
          122 -1 141 -141 31 43 87 127 27 30 90 -48 47 hstemhm
          21 28 -20 84 80 32 55 28 135 72 85 101 hintmask 0011010111110000
          113 323 rmoveto
          9 19 -4 0 6 21 4.43812561035 15.5334625244 15.5618743896 7.46653747559 14 0 24 0 11 -18 0 -27 0 -5.564453125 0 -7.435546875 -1 -5 -30 -26.6669921875 -27 -28.3330078125 -26 -36 rrcurveto
          hintmask 0011001011110000
          -34.7057189941 -47.7203674316 -45.5976409912 -93.0099334717 -7.69664001465 -69.2696990967 rrcurveto
          28 -11 rlineto
          3 40 12.6748046875 22 22.3251953125 0 rrcurveto
          hintmask 1001100111110000
          33 0 -3 -74 87 0 42.0211486816 0 32.6455230713 22.6666717529 17.3333282471 41.3333282471 21.3333282471 -42.6666717529 33.6666717529 -21.3333282471 46 0 rrcurveto
          85 33 68.8472290039 58.1527709961 124 -90 64 -120 hvcurveto
          -27.3330078125 0 -33.6669921875 -2 -30 -8 30 24 45 16 64 0 rrcurveto
          105 142 -61 -160 hvcurveto
          hintmask 0101100111110000
          -46 -16 -47 -41 vhcurveto
          -12 0 -16 3 -9 7 rrcurveto
          -2 -28 rlineto
          16 -12 20 -1 10 0 rrcurveto
          108 43 110.999771118 82.0002288818 136 -98 106 -150 hvcurveto
          -87 0 -82 -33 -59 -55 rrcurveto
          4 vlineto
          hintmask 0011010111110000
          49 -36.6522674561 34 -52.3477325439 -56.6367645264 -50.3632354736 -38.9013671875 -54.0986328125 -12 6 -31 37 vhcurveto
          15 0 17.7322845459 8.54592895508 8.2677154541 17.4540710449 rrcurveto
          67 -55 rmoveto
          24.6669921875 12 39.666015625 7 56.6669921875 0 rrcurveto
          101 41 -41 -42 hvcurveto
          hintmask 1001000011110000
          -35 -25 -29 -41 -45 -24 14 61 vhcurveto
          1 -28 -2 vlineto
          -57 -22 -17 -46 vhcurveto
          hintmask 0011000011110000
          -40 0 -11 20 -32 0 -14 0 -12 -7 -12 -10 10 20 3 9 27 40 15.5223846436 22.9961395264 16.1446075439 18.3368682861 17.3330078125 14.6669921875 rrcurveto
          endchar
        </CharString>
        <CharString name="uni0D9B">
          6 -1 30.333984375 -29.333984375 136 -19.333984375 31.333984375 127 121 178 27 hstemhm
          32 38 110.666015625 31.333984375 135 66 119 52 hintmask 1011111110000000
          93.333984375 73 rmoveto
          23.9130859375 19.7529296875 19.7529296875 23.9130859375 23.9130859375 19.7529296875 -19.7529296875 -23.9130859375 -23.9130859375 -19.7529296875 -19.7529296875 -23.9130859375 vhcurveto
          -23.9130859375 -19.7529296875 19.7529296875 23.9130859375 hvcurveto
          -20.333984375 33 rmoveto
          -3 12 0 10 0 12 rrcurveto
          85 79 50 87 92 19 -40 -35 vhcurveto
          0 -20 -9 -34 -52 -62 -41.9140625 -49.974609375 -28.7529296875 -38.6923828125 -13.3330078125 -13.3330078125 rrcurveto
          40 -3 rlineto
          42 55 24 20 13 0 rrcurveto
          hintmask 0101111110000000
          27 0 4 -54 64 0 rrcurveto
          108 60 150 136 187 -120 128 -166 hvcurveto
          -112 0 -77.3333282471 -47.6666717529 -44.6666717529 -83.3333282471 rrcurveto
          35 hlineto
          41 70 65 34 89 0 rrcurveto
          151 87 -119 -137 -103 -28 -79 -60 hvcurveto
          -34 0 9 26 -29 0 -2.6669921875 0 -3 -0.3330078125 -3.3330078125 -0.6669921875 7 11 25 29 0 57 rrcurveto
          85.14453125 -80 52.85546875 -93 -116.161132812 -91.8388671875 -74 -139 vhcurveto
          hintmask 1011111110000000
          -75 24 -109 85 41 30 38 37 46 -33 28 -42 vhcurveto
          -30 0 -25 -16 -9 -26 rrcurveto
          endchar
        </CharString>
        <CharString name="uni0D9C">
          12 -2 142 -141 28 193 26 74 111.5 -26.0498046875 26.0498046875 hstemhm
          34 54 128 28 50 58 146 88 hintmask 1010111110000000
          233 405 rmoveto
          -3.35546875 0.2841796875 -4.333984375 0.166015625 -3.310546875 0 rrcurveto
          -84 -50 -76.4501953125 -71 -72 54 -46 69 59 24 24 27 25 -18 4 -7 hvcurveto
          -11 0 -7 -3 -5 -3 -1 -6 -1 -10.6669921875 0 -3.3330078125 rrcurveto
          -28 hlineto
          hintmask 0111011110000000
          9 127 63 110.5 122 0 rrcurveto
          112 64 -99.5 -115 -122 -85.9471893311 -96 -131.052810669 hvcurveto
          -10 0 -10.3333282471 0.66667175293 -10.6666717529 1.33332824707 rrcurveto
          28 vlineto
          8 -1 8 -1 8 0 rrcurveto
          104 32 83 65 80 -37 65 -98 hvcurveto
          -71 0 -35 -43 -7 -36 6 3 7.3330078125 2 6.6669921875 0 rrcurveto
          50 32 -44 -66 hvcurveto
          hintmask 1010111110000000
          -80 -57 -58 -87 -111 -63 98 111 123 75 101.5 111 vhcurveto
          3.953125 0 5.0009765625 -0.25 4.0458984375 -0.25 rrcurveto
          endchar
        </CharString>
        <CharString name="uni0D9D">
          53 -1 139 62 32 48 28 -20 28 74 42 hstemhm
          51 61 166.0859375 35.060546875 78.853515625 31 114 42 -10 59 hintmask 1110111101000000
          224 280 rmoveto
          89 hlineto
          0.1005859375 3.3876953125 0.0458984375 6.333984375 0 3.2783203125 rrcurveto
          76 -38.146484375 62.5 -88 -55 -50 -25.5 -47 -25.6318359375 16 -13.3681640625 23 vhcurveto
          26 0 14 14 7.5 21 7.0732421875 19.8046875 14.4267578125 12.1953125 23 0 37 0 28.0859375 -32 0 -43 0 -1.958984375 -0.00390625 0 -0.08203125 -2.041015625 rrcurveto
          -9 hlineto
          -37 0 -54.2392578125 -12.80078125 -33.7607421875 -12.19921875 -52 -16 -41 -41 0 -72 0 -78 57.1737518311 -77 90.8262481689 0 18.6666717529 0 29.3333282471 3 31 9 3 6 1 22.6669921875 0 7.3330078125 0 48 -11 1 0 38 rrcurveto
          43 17 23 44 44 16 -29 -37 vhcurveto
          0 -39 -15 -11 0 -37 0 -6.6669921875 1 -24.3330078125 3 -4 30.6669921875 -8 28.3330078125 -4 24 0 91.929107666 0 72.070892334 58 0 108 0 55.08203125 -30.6666717529 52.5846405029 -47.3333282471 23.3333282471 rrcurveto
          hintmask 1101111110000000
          19 11 10 21.6669921875 0 21.3330078125 rrcurveto
          54 -47 27 -54 -78 -47.2829284668 -57 -84 vhcurveto
          0 -3.62567138672 0.0973815917969 -4.66827392578 0.185546875 -3.7060546875 33 7 26 2 36 0 rrcurveto
          hintmask 1110111101000000
          87 34 -37 -37 -50 -43 -26 -44 hvcurveto
          -31.294921875 0 -19.705078125 4 -8 7 0 7 -1.45161437988 7.7232208252 -2.7165222168 9.27679443359 -11.3640594482 38.8076171875 -33.5000152588 20.1923675537 -41.9677886963 0 -42.39012146 0 -35.0582580566 -22.4560241699 -10.9768676758 -41.5439758301 -2.32978820801 -8.81753540039 -0.244964599609 -6.18246459961 -1 -7 -7 -6 -22 -2 -18 0 rrcurveto
          -41 -40 19 44 hvcurveto
          44 52 35 60 vhcurveto
          -77 hmoveto
          162 0 -33 28 -271 0 0 -35 rlineto
          16 2.6669921875 55 3.3330078125 71 1 rrcurveto
          238 30 rmoveto
          4.6669921875 54.6669921875 29.3330078125 25.3330078125 52 0 rrcurveto
          hintmask 1101111110000000
          29 37 -14 -32 hvcurveto
          0 -18 -7 -12 -9 -7 -14 5 -28 4 -34 0 -26 0 -21 -2 -13 -4 rrcurveto
          endchar
        </CharString>
        <CharString name="uni0DA0">
          -27 0 140 134 28 87 42.5 119.5 26 hstem
          64 64 156.0859375 35.060546875 197.853515625 58 vstem
          319 274 rmoveto
          0.1005859375 3.3876953125 0.0458984375 9.333984375 0 3.2783203125 rrcurveto
          86 -43.146484375 55.5 -88 -55 -50 -25.5 -47 -25.6318359375 18 -13.3681640625 20 vhcurveto
          29 0 10.951171875 15.9482421875 6.548828125 19.0517578125 5.5 16 13 18 34 0 32 0 32.0859375 -31 0 -50 0 -1.958984375 -0.00390625 -2 -0.08203125 -2.041015625 rrcurveto
          -14 hlineto
          -37.1247711182 0 -41.1144866943 -11.80078125 -33.7607421875 -12.19921875 -26 -5 -18.8729705811 -10.9949493408 -16.1270294189 -14.0050506592 -23.2247161865 -20.1688232422 -9.77528381348 -32.110824585 0 -30.7203521729 rrcurveto
          -119 110 -46 121 183 97 114 160 169 -111.848632812 134 -160.151367188 vhcurveto
          -98 0 -72.3330078125 -37 -48.6669921875 -70 rrcurveto
          35 hlineto
          44 52 60.6669921875 29 79.3330078125 0 rrcurveto
          134.498046875 79.501953125 -109 -113 -111 -66 -78 -153 -90 -80 18 49 hvcurveto
          0 13 4.712890625 19.2412109375 28.287109375 14.7587890625 23 12 32 8 55 0 rrcurveto
          -123 hmoveto
          167 0 -33 28 -269 0 0 -35 rlineto
          16 2.6669921875 48 3.3330078125 71 1 rrcurveto
          endchar
        </CharString>
        <CharString name="uni0DA1">
          -26 0 139 47 27 74 25 72 48 -25 210 hstemhm
          33 60 142 31 20 29 23.5146484375 30.0029296875 120.482421875 60 -49 31 hintmask 1110111110100000
          473 291 rmoveto
          -39.1318359375 18.013671875 -45.8681640625 3.3056640625 -38 0 -16 0 -11 -1.3193359375 -7 -1 -1 4 0 5 0 5 rrcurveto
          65 45 18 42 62 36 -23 -61 -40 -23 -70 -51 -31 -26.482421875 19 45 vhcurveto
          0 103 48.482421875 85 54 48 55.615234375 49.435546875 41.384765625 -6.435546875 0 37 0 10 -7 14 -20 0 -26 0 -37 -19 -35 -42 -43.1318359375 -51.7587890625 -33.8681640625 -69.2412109375 -17 -71 -7.0050201416 -29.2562713623 -3.4803314209 -21.7437286377 0 -35 rrcurveto
          -72 45.4853515625 -20 40 79 28 88 51 77 -53 33 -72 -70 -50 -34 -82 vhcurveto
          0 -11 3 -19 2 -7 14 1 28 3 22 0 rrcurveto
          hintmask 1111011111000000
          115 19 -41 -35 -55 -91 -16 -106 -102.76953125 -96.23046875 19 59 24 23 46 113 hvcurveto
          9 0 12 -1 12 -1 2.6669921875 13.3330078125 1.3330078125 15.6669921875 0 12 rrcurveto
          67.3922729492 -45.1073760986 38.6077270508 -66.8926239014 -47.1020050049 -50.8979949951 -23.2258148193 -48.7741851807 -25.3333282471 16 -15.6666717529 25 vhcurveto
          28 0 10 15 11 24 6.896484375 15.0478515625 13.09375 10.9521484375 22.009765625 0 32 0 15 -24 0 -29 0 -6.6669921875 -0.6669921875 -6.666015625 -1.3330078125 -6.6669921875 -8 1 1.1107635498 0 -18.1107635498 0 rrcurveto
          -112 -63 -62.7978515625 -79.2021484375 -126 127.148101807 -44 137.851898193 125.68536377 125.31463623 45 123 hvcurveto
          0 60 -32.4638671875 42.9599609375 -43.5361328125 20.0400390625 rrcurveto
          endchar
        </CharString>
        <CharString name="uni0DA2">
          -26 0 140 147 25 74 46 -26.98046875 28.98046875 hstemhm
          33 62 140 31 25 32 36 30.009765625 95.990234375 64 -61.009765625 32.009765625 hintmask 1110111110000000
          262 285 rmoveto
          2.6669921875 13.3330078125 1.3330078125 15.6669921875 0 12 rrcurveto
          67.3922729492 -45.1073760986 38.6077270508 -66.8926239014 -47.1020050049 -50.8979949951 -23.2258148193 -48.7741851807 -25.3333282471 16 -14.6666717529 25 vhcurveto
          23 0 12 10 11 24 6.896484375 15.0478515625 15.09375 16.9521484375 22.009765625 0 37 0 11 -32 0 -23 0 -6.6669921875 -0.6669921875 -6.666015625 -1.3330078125 -6.6669921875 -8 1 1.1107635498 0 -18.1107635498 0 rrcurveto
          -112 -63 -62.7978515625 -79.2021484375 -126 127.148101807 -44 137.851898193 125.68536377 125.31463623 45 123 hvcurveto
          0 59 -31.2203521729 43.9730834961 -43.7796478271 18.0269165039 rrcurveto
          hintmask 1101111101000000
          31.3333282471 13.3333282471 14.6666717529 23.6666717529 0 30 0 56 -52 22 -41 0 -2 0 -13 0 -4 -1 10 26 26 33 26 21 42.4462890625 34.283203125 57.5537109375 4.716796875 0 34 0 22 -18 9 -16 0 rrcurveto
          -17 0 -31 -10 -42 -48 -32.212890625 -36.814453125 -23.787109375 -50.185546875 -15 -42 -53 -9 -31 -36.6669921875 0 -53.3330078125 0 -14.6669921875 2.3330078125 -18.3330078125 4.6669921875 -16 14 1 21 3 22 0 rrcurveto
          hintmask 1110111110000000
          115 15 -47 -19 -59 -87 -21 -106 -102.76953125 -94.23046875 17 58 27 15 45 119 hvcurveto
          9 0 12 -1 12 -1 rrcurveto
          97 75 rmoveto
          0 -25 14 -19.3333282471 12 -6.66667175293 -12 2 -10.3330078125 0 -6.6669921875 0 -13 0 -9 -1 -8 -1 -2 9.33332824707 -1 8.33334350586 0 7.33332824707 0 30.6666717529 16 22.3333282471 26 12 -3 -9 -3 -11.4052734375 0 -18.5947265625 rrcurveto
          30.009765625 -1.0400390625 rmoveto
          0 13.06640625 4.7373046875 10.943359375 9.47265625 8.8203125 rrcurveto
          hintmask 1101111101000000
          9.4736328125 8.8203125 11.26953125 4.4091796875 13.0673828125 0 15.0263671875 0 12.25 -5.0625 9.4736328125 -10.126953125 9.47265625 -10.126953125 4.7373046875 -11.5966796875 0 -13.06640625 0 -13.06640625 -4.7373046875 -10.943359375 -9.47265625 -8.8203125 -9.4736328125 -8.8203125 -11.26953125 -4.4091796875 -13.0673828125 0 -13.7197265625 0 -11.9228515625 4.736328125 -10.126953125 9.4736328125 rrcurveto
          -10.126953125 9.47265625 -5.0634765625 11.923828125 0 14.373046875 rrcurveto
          endchar
        </CharString>
        <CharString name="uni0DA7">
          -21 -1.15399169922 141.153991699 222.3515625 29.027053833 159.706344604 25.9949035645 hstem
          31.5960235596 66.3082733154 391.181640625 67.9207611084 vstem
          97.904296875 261.756835938 rmoveto
          -87.7568359375 90.095703125 -34 90 123 88.0859375 61 124.66015625 104.33984375 -71.0859375 121.084960938 -142.559570312 vhcurveto
          -80.732421875 0 -59.7080078125 -28.0849609375 -42 -53 rrcurveto
          -36 hlineto
          46.927947998 69.3717498779 72.7219238281 37.708114624 96.4372558594 0 rrcurveto
          173.156234741 110.763336182 -143.842895508 -162.053985596 -155.9324646 -109.762283325 -116.404510498 -162.002029419 -152.324539185 -101.32182312 81.7932281494 127.230255127 114.748794556 94.5740661621 68.7603302002 105.829910278 hvcurveto
          27 0 32.6551208496 -5.29277038574 29.3448791504 -11.0858459473 rrcurveto
          -32 vlineto
          -27.11328125 12.9111328125 -27.88671875 6.4404296875 -32 0 rrcurveto
          -80 -56.095703125 -41.3515625 -59.2431640625 hvcurveto
          endchar
        </CharString>
        <CharString name="uni0DA9">
          0 140 145 30 73.267578125 43.8994140625 122.922851562 26.9304046631 hstem
          45.8804931641 63.5111083984 187.608398438 31 211.143554688 58.84375 vstem
          73.2109375 373.122070312 rmoveto
          39.8779296875 47.8896484375 19.1669921875 42.1787109375 78.720703125 53 -48.1669921875 -99 vhcurveto
          -71 hlineto
          -93.04296875 -21.5654296875 -51 -24 -46 40.5986328125 -24 53.009765625 64 30 21 39 hvcurveto
          21 31 -21 vlineto
          -36 25 -24 61 75 50.1435546875 60 93.2177734375 128.782226562 -79.1435546875 133.08984375 -161.53515625 vhcurveto
          -80.4990234375 0 -63.9658203125 -33.08984375 -45 -54 rrcurveto
          -36 hlineto
          54.2575683594 77.93359375 82.4799346924 36.0866546631 94.3814544678 0 rrcurveto
          174.516738892 119.351608276 -138.020248413 -185.778320312 -148.221679688 -50.9799346924 -110.025131226 -119.351821899 hvcurveto
          -64.6278839111 0 -28.3972320557 28.5458831787 -21.6304321289 30.4792480469 -29.5937957764 -37.3139190674 -33.4062042236 -21.6860809326 -51 0 -101.016189575 0 -52.1033172607 81.1902923584 0 80.8097076416 0 50 25.1683349609 49.1982421875 53.951171875 23.8017578125 rrcurveto
          -110 30 243 hlineto
          -2 35 -25 38.267578125 -34 0 -9 0 -18.796875 -0.90234375 -15.203125 -27.365234375 -10 -18 -15 -6.736328125 -16 0 rrcurveto
          -24 -15.7890625 15.736328125 22.1220703125 hvcurveto
          endchar
        </CharString>
        <CharString name="uni0DAA">
          0 140 145 30 48 33 -7.732421875 43.8994140625 hstemhm
          45.8804931641 63.5111083984 146.608398438 37 4 31 -10 32 187.143554688 60.84375 hintmask 1110110110000000
          359 603 rmoveto
          -11 -17 -30 -45 0 -64 0 -66 38 -48 66 0 42.7985229492 0 26.5407104492 25.0641326904 16.9733886719 25.5964813232 17.4424743652 -36.5341186523 11.388458252 -40.9073028564 0 -43.0014190674 rrcurveto
          -93.2177734375 -48.1435546875 -60 -75 vhcurveto
          hintmask 1101111010000000
          -61 -25 24 36 hvcurveto
          21 -31 -21 vlineto
          -39 -30 -21 -64 -53.009765625 -40.5986328125 24 46 24 21.5654296875 51 93.04296875 vhcurveto
          69 hlineto
          97 -51 50.1669921875 -78.720703125 -42.1787109375 -47.8896484375 -19.1669921875 -39.8779296875 -22.1220703125 15.7890625 -15.736328125 24 vhcurveto
          16 0 15 6.736328125 10 18 15.203125 27.365234375 18.796875 0.90234375 9 0 32 0 26 -34.267578125 1 -39 rrcurveto
          -241 -30 110 hlineto
          -53.951171875 -23.8017578125 -25.1683349609 -49.1982421875 0 -50 0 -80.8097076416 52.1033172607 -81.1902923584 101.016189575 0 51 0 33.4062042236 21.6860809326 29.5937957764 37.3139190674 21.6304321289 -30.4792480469 28.3972320557 -28.5458831787 64.6278839111 0 119.351821899 0 50.9799346924 110.025131226 0 146.221679688 rrcurveto
          0 145.778320312 -124.987304688 156 -114 45 rrcurveto
          132.289550781 -157.972442627 rmoveto
          hintmask 1110110110000000
          -13.416595459 -24.884765625 -22.9678039551 -24.142791748 -30.9051513672 0 -46 0 -28 28 0 57 0 29 11 37 13 15 34.5757598877 -17.0044708252 47.794342041 -42.7068634033 34.9194488525 -57.2611083984 rrcurveto
          endchar
        </CharString>
        <CharString name="uni0DAB">
          339 -0.787109375 50.787109375 -50 129 -92.5703125 32.98828125 100.58203125 37.6982421875 -31.091796875 22.3935546875 55.58203125 30.98828125 0.4296875 61.787109375 56.212890625 29 11 84 hstemhm
          170 32 63.6064453125 30.091796875 112.603515625 32.091796875 51.6064453125 92 -35.1591796875 35.1591796875 124.278320312 27.7216796875 85 94.36328125 hintmask 0101011111111011
          337 129 rmoveto
          -142 0 -18 77 -61 0 131 82 168 88 185 40 79.6103057861 17.2130432129 104.389694214 7.78695678711 35 3 35.2261810303 3.0193939209 8.77381896973 22.6475982666 0 15.3330078125 0 21 -19 22 -39 0 -43 0 -41.2763671875 -8.1953125 -60.7236328125 -18.8046875 rrcurveto
          -155 -48 -273 -131 -210 -144 rrcurveto
          11 -26 rlineto
          21 14 17 13 28 0 81 0 -13 -179 198 0 rrcurveto
          155 64 114 99 177 -144 43 -81 -106 -83 -49 -92 -75.0068359375 62 -46.9931640625 89 hvcurveto
          41 0 22 10 21 14 rrcurveto
          hintmask 0100111111111011
          -83 5 rlineto
          -54 -66 23 75 69 69 38 84 105 32 -88 -46 hvcurveto
          -66 -37 -75 -118 vhcurveto
          -71.3935546875 135 rmoveto
          -47.8583984375 39.53515625 -39.53515625 47.8583984375 47.8583984375 39.53515625 39.53515625 47.8583984375 47.8583984375 -39.53515625 39.53515625 -47.8583984375 -47.8583984375 -39.53515625 -39.53515625 -47.8583984375 vhcurveto
          30.091796875 hmoveto
          30.9111328125 25.390625 25.390625 30.9111328125 30.9111328125 25.390625 -25.390625 -30.9111328125 vhcurveto
          hintmask 0001011111110011
          -30.9111328125 -25.390625 -25.390625 -30.9111328125 -30.9111328125 -25.390625 25.390625 30.9111328125 vhcurveto
          hintmask 0010011111110111
          253.142578125 -103 rmoveto
          -68.8408203125 42.6162109375 -55.7294921875 53.54296875 vhcurveto
          29.1445922852 0 23.2458190918 11.315612793 16.3307189941 19.998336792 rrcurveto
          hintmask 1000011111110111
          4.87425231934 -34.7292480469 29.5099487305 -33.8014984131 51.8946685791 0 rrcurveto
          83 32.36328125 73.787109375 95 96.7578125 -33.36328125 83.029296875 -70 hvcurveto
          -60.8388214111 0 -28.549621582 -47.4031829834 -4.09309387207 -48.9270477295 -15.8991546631 22.2014465332 -24.3866882324 11.9119873047 -33.2326202393 0 rrcurveto
          -53.54296875 -42.6162109375 -55.7294921875 -68.8408203125 hvcurveto
          29.880859375 1 rmoveto
          51.1640625 27.931640625 41.41796875 36.3466796875 44.1259765625 21.15234375 -33.8701171875 -58.7119140625 vhcurveto
          hintmask 0010011111110011
          -55.740234375 -23.8671875 -36.841796875 -41.4111328125 -36.3466796875 -27.931640625 41.41796875 51.1640625 vhcurveto
          160.716934204 29.2224731445 rmoveto
          2.56234741211 61.7382507324 13.7615966797 33.039276123 24.2374572754 0 rrcurveto
          30 11 -41 -76 hvcurveto
          hintmask 1000011111110011
          -74 -7 -45 -36 -10 -32 8 47 vhcurveto
          0 3.67721557617 0.0937042236328 3.59880065918 0.154281616211 3.57066345215 3.24200439453 13.6773529053 1.66918945312 15.1343383789 0 16.3416290283 0 10.6971435547 -0.571304321289 10.084197998 -1.14926147461 9.4411315918 rrcurveto
          endchar
        </CharString>
        <CharString name="uni0DAC">
          107 0 140 145 30 73.267578125 44.732421875 -6 6 122.08984375 26.9306640625 hstemhm
          27 32 73.880859375 63.5107421875 187.608398438 31 211.143554688 58.84375 hintmask 1110111110000000
          160.2109375 373.122070312 rmoveto
          -22.1220703125 15.7890625 -15.736328125 24 vhcurveto
          16 0 15 6.736328125 10 18 15.203125 27.365234375 18.796875 0.90234375 9 0 34 0 25 -38.267578125 2 -35 rrcurveto
          -243 -30 110 hlineto
          -53.951171875 -23.8017578125 -25.16796875 -49.1982421875 0 -50 0 -80.8095703125 52.1025390625 -81.1904296875 101.016601562 0 51 0 33.40625 21.6865234375 29.59375 37.3134765625 21.630859375 -30.4794921875 28.396484375 -28.5458984375 64.6279296875 0 rrcurveto
          119.352539062 50.9794921875 110.025390625 148.221679688 185.778320312 -119.3515625 138.020507812 -174.516601562 hvcurveto
          -94.3818359375 0 -82.4794921875 -36.0869140625 -54.2578125 -77.93359375 rrcurveto
          36 hlineto
          45 54 63.9658203125 33.08984375 80.4990234375 0 rrcurveto
          161.53515625 79.1435546875 -133.08984375 -128.782226562 -93.2177734375 -50.1435546875 -60 -75 -61 -25 24 36 hvcurveto
          21 -31 -21 vlineto
          -39 -27 -21 -60 -53.009765625 -47.5986328125 24 46 24 21.5654296875 51 93.04296875 vhcurveto
          71 hlineto
          99 -53 48.1669921875 -78.720703125 vhcurveto
          -42.1787109375 -47.8896484375 -19.1669921875 -39.8779296875 hvcurveto
          hintmask 1101111110000000
          132.7890625 53.8779296875 rmoveto
          hintmask 1110111110000000
          -22 6 -23 0 -9 0 -139.243804932 0 -72.7561950684 -80.3002471924 0 -131.699752808 0 -100.930114746 41.5828399658 -86.8613128662 66.4171600342 -33.2085723877 rrcurveto
          34 vlineto
          -49 44 -27 59.3330078125 0 80.6669921875 0 101.267578125 47 61.732421875 72 17 rrcurveto
          17 6 77 12 21 11 rrcurveto
          endchar
        </CharString>
        <CharString name="uni0DAD">
          80 -2 142 -141 35 45 86 129 26 31 84 -50 48 hstemhm
          22 24 -9 87 52.9599609375 29.1400299072 182.900009155 70 96 109 hintmask 0011001011100000
          174 322 rmoveto
          -68 -70 -71 -122 -13 -105 rrcurveto
          24 -16 rlineto
          8.6669921875 44 10.3330078125 26 24 0 rrcurveto
          hintmask 1001100111100000
          51 0 -6 -81 148 0 rrcurveto
          110 67 72 92 106 -77 52 -101 hvcurveto
          -32 0 -25.6669921875 -3.6669921875 -21.3330078125 -9.3330078125 30 33 55 11 40 0 rrcurveto
          114 114 -71 -139 hvcurveto
          hintmask 0101100111100000
          -47 -17 -60 -41 vhcurveto
          -18 0 -8 3 -11 7 rrcurveto
          -5 -28 rlineto
          19.3333282471 -13.3333282471 24.6666717529 -3.66667175293 27 0 rrcurveto
          86 52 86.001953125 99.998046875 149 -102 101 -139 hvcurveto
          -64 0 -87 -15 -66 -72 0.0637054443359 1.68809509277 0.0362854003906 1.66677856445 0 1.64512634277 rrcurveto
          hintmask 0011010111100000
          47 -28.7562408447 33 -50.34375 -49 -41 -41 -50 -25.4175415039 12 -23.5824584961 29 vhcurveto
          35 0 10 31 1 29.5 0.7021484375 20.7119140625 10.6171875 10.7880859375 16.6806640625 0 14 0 10.9599609375 -15 0 -26 rrcurveto
          0 -8.71875 -0.9599609375 -3.28125 -2 -10 rrcurveto
          -15 -63 rmoveto
          32 23 42.6494140625 12 49.3505859375 0 rrcurveto
          69 37 -38 -39 hvcurveto
          hintmask 1001000011100000
          -56 -51 -21 -75 vhcurveto
          hintmask 0011000011100000
          -68 0 -30 25 -37 0 -11.3330078125 0 -12.6669921875 -2 -9 -7 19 38 13.5009765625 26.5009765625 31.4990234375 38.4990234375 rrcurveto
          endchar
        </CharString>
        <CharString name="uni0DAE">
          -10 -1 141 227 38 -2 27 hstemhm
          33 54 218 32 177 52 hintmask 10111100
          514 317 rmoveto
          -104 -87 -73 -122 -114 -104 29 96 82 75 56 83 vhcurveto
          27 vlineto
          -111 -101 -85.1708984375 -109.829101562 -142.939453125 117.697265625 -93.060546875 144.302734375 155 116 103.630859375 149.369140625 hvcurveto
          0 70 -12.216796875 49.01171875 -38.783203125 66.98828125 -36.0353546143 62.2420654297 -70.9646453857 71.7579345703 -61 33 -27 -31 -15 -36 0 -50 rrcurveto
          hintmask 11011100
          -66 36.8447265625 -55 63.1552734375 vhcurveto
          43 0 29.3330078125 17.3330078125 14.6669921875 32.6669921875 rrcurveto
          17 -37 5 -29 0 -34 rrcurveto
          -43 131 rmoveto
          -10.236328125 -33.859375 -24.763671875 -9.140625 -24 0 -57 0 -18 37.6669921875 0 49.3330078125 0 34.6669921875 8 19.3330078125 12 18 38 -28 46 -42 30 -46 rrcurveto
          endchar
        </CharString>
        <CharString name="uni0DB1">
          182 -1.2216796875 32.568359375 -32.4688720703 140.122192383 142 27.1020050049 31.8979949951 92.7781524658 -53.2263946533 51.4482421875 hstemhm
          55.1414642334 88.6056060791 77.0712890625 32.2030487061 166.978591919 78.1677093506 147.832290649 114 hintmask 1011011110000000
          269 297 rmoveto
          33 31 52 12 53 0 rrcurveto
          123 116 -95 -129 -41 -20 -43.6533203125 -42 hvcurveto
          -15 0 -16 3.6533203125 -12 8 rrcurveto
          -13 -24 rlineto
          16 -12 22 -8.2216796875 41 0 rrcurveto
          84 69 63.8314971924 120.390182495 152.012573242 -114 97.7655792236 -140.000289917 hvcurveto
          -105.36340332 0 -97.5156402588 -57.9971618652 -50.1206665039 -57.7809906006 0.0147705078125 1.00483703613 0.00663757324219 1.00001525879 0 0.995147705078 rrcurveto
          hintmask 0110111110000000
          67 -33.9966888428 44 -65.0247192383 -64.982635498 -33.8759002686 -46.9970092773 -45.0029907227 -35 26.8585357666 -10 17 vhcurveto
          32 0 10.7666015625 29.01953125 1.98046875 21.98046875 2.2529296875 25 14 9.5517578125 20.4619140625 0 23.5380859375 0 16.818359375 -23.5517578125 0 -34 0 -12.876953125 -1.818359375 -13.123046875 -5 -11 -82 -77 1 -45.8720703125 -66 0 -16 0 -17 5.8720703125 -10 6 rrcurveto
          -1 -114 113 -61.1221923828 140.065200806 0 rrcurveto
          121.969543457 100.132965088 53.9475250244 116.027389526 80.0908508301 -69.2129669189 59.1584320068 -83.9107513428 hvcurveto
          -27.9408874512 0 -22.2339630127 -1.76020812988 -25.869140625 -9.341796875 rrcurveto
          65 -16 rmoveto
          60 26 -27 -34 -49 -45.5087890625 -32 -110.491210938 hvcurveto
          -58.095703125 0 -41.904296875 7 -29 8 64 43 -9 84 144 0 rrcurveto
          endchar
        </CharString>
        <CharString name="uni0DB4">
          -8 0 140 159.717773438 27.210357666 63.346282959 43.3512420654 -30.9879608154 30.4808349609 hstemhm
          31.3313903809 64.6686096191 -40.6748046875 90.328125 97.0283203125 32.1879882812 46.2735290527 34.0414123535 147.293945312 38.5402984619 -34.0188140869 67.0058746338 hintmask 1101101101000000
          438.844848633 433.118530273 rmoveto
          -72.8879699707 -44.8137207031 -36.1185302734 -69 hvcurveto
          0 -9.73324584961 0.929107666016 -12.3429260254 1.927734375 -10.923828125 22.9267578125 4.1689453125 23.892578125 2.443359375 23.1806640625 0 rrcurveto
          74 39 -25.6123046875 -37 -73 -103 -26 -97 -101 -110 18 73 43 48 25.7177734375 73 hvcurveto
          1.23046875 0 34.9501953125 -1.341796875 17.8193359375 -2.3759765625 2.6318359375 13.3037109375 1.23779296875 13.3334350586 0 11.3632049561 rrcurveto
          hintmask 1110011100000000
          66.9996490479 -44.3220062256 32.6256561279 -72.3584136963 -55.1892089844 -47.6748046875 -25.6256561279 -41 -30 20.6748046875 -10.9267578125 21 vhcurveto
          25 0 17 11.9267578125 6.6533203125 20 6.13418579102 18.4394989014 14.2124938965 13.8349151611 28 0 23 0 25.681640625 -14.2744140625 0 -40 0 -3.5087890625 -0.220703125 -3.6669921875 -0.4609375 -3.82421875 -12.7919921875 1.2890625 -9.2080078125 0.639068603516 -13 0 rrcurveto
          hintmask 1101101101000000
          -107.770324707 -67.8982849121 -52.3044433594 -91.0694580078 -137.633926392 127.258178711 -45.9203033447 148.410430908 140.644683838 126.361190796 55.561920166 130.889602661 hvcurveto
          0 54.291229248 -19.6735687256 38.7300720215 -40.3323059082 23.5271759033 rrcurveto
          hintmask 1101001110000000
          18.5479125977 13.666885376 8.47090148926 17.333114624 0 20 rrcurveto
          38.9661254883 -36.0188140869 40.1524047852 -66.1551513672 vhcurveto
          48.1551513672 -118.118530273 rmoveto
          -24.5400390625 8.7646484375 -26.4599609375 4.33294677734 -33 0 -15.6550292969 0 -14.3898925781 -1.04290771484 -16.955078125 -2.0546875 -0.537109375 3.8642578125 -0.2783203125 3.36328125 0 3.7724609375 rrcurveto
          45 34.8154296875 21.6376953125 42 47 23.478515625 -22.6376953125 -29 vhcurveto
          0 -12.5146484375 -4.146484375 -12.7822265625 -11.33203125 -10.703125 rrcurveto
          endchar
        </CharString>
        <CharString name="uni0DC0">
          -27 0 140 137 27 83 44.5 119.5 26 hstem
          33 68 155.0859375 36.0601348877 198.853927612 57 vstem
          292 277 rmoveto
          0.1005859375 3.3876953125 0.0454864501953 6.33387756348 0 3.2784576416 rrcurveto
          85.9999694824 -43.1460723877 55.5 -88 -55 -50 -25.5 -47 -25.6318359375 17 -14.3681640625 23 vhcurveto
          26 0 11.951171875 16.9482421875 6.548828125 19.0517578125 5.5 16 11 16 34 0 33 0 32.0859375 -29 0 -50 0 -1.958984375 -0.00390625 0 -0.08203125 -2.041015625 rrcurveto
          -57 hlineto
          -101 -65 -54 -85 -119 113 -46 121 183 98 114 160 169 -111.848602295 134 -160.151397705 hvcurveto
          -98 0 -72.3333282471 -37 -48.6666717529 -70 rrcurveto
          35 hlineto
          44 52 60.6669921875 29 79.3330078125 0 rrcurveto
          134.498046875 80.501953125 -115 -119 -106 -68 -71 -153 -74 -95 11 62 37 36 27 74 hvcurveto
          endchar
        </CharString>
        <CharString name="uni0DC4">
          29 -1.30331420898 29.508392334 -28.967300415 139.62550354 76.548828125 26.7578125 35.8505859375 25.3321685791 10.6473236084 118.009338379 -54.0093383789 54.0334014893 hstemhm
          32.955078125 61.044921875 110 35 0 25 54 48.1626739502 130.83732605 108.018341064 hintmask 1011101011100000
          264 186 rmoveto
          -25 9 rlineto
          9 125 81.0873718262 112.009338379 101.214309692 0 rrcurveto
          111.871841431 62.8448181152 -103.358627319 -117.689178467 -118.957046509 -89.0183410645 -93.307800293 -123 hvcurveto
          -13.3148040771 0 -13.6921539307 1.0368347168 -13.9930419922 2.26647949219 rrcurveto
          29 vlineto
          12.328125 -1.9130859375 12.025390625 -0.8818359375 11.646484375 0 rrcurveto
          89 20 83.794921875 54 64 -33 84 -90 hvcurveto
          -75 0 -17 -50 -9 -29 9.8349609375 5.5322265625 8.798828125 1.6376953125 9.3662109375 0 rrcurveto
          41 24.1626739502 -43.0306396484 -53.7894744873 hvcurveto
          hintmask 0111011101100000
          -92.357131958 -70.6613616943 -53.7548980713 -94.4681549072 -97.5502624512 -70.5278167725 61.823638916 94.0515899658 90.8869934082 67.044921875 57.3526763916 94 vhcurveto
          3.95770263672 0 2.00128173828 -0.129043579102 4.041015625 -0.2236328125 0 39 -24 36 -28 0 -15 0 -14 -4 -9 -22 -8.15625 -19.9365234375 -15.84375 -9.0634765625 -16 0 rrcurveto
          -22 -18.9763031006 13 28 30.2077789307 28.6786193848 37.8256225586 56.7526550293 hvcurveto
          hintmask 0111101011100000
          78.8945007324 41.6505279541 -71.7334136963 -84.299987793 hvcurveto
          -11.6796875 1.3525390625 -11.3671875 0.66796875 -10.953125 0 rrcurveto
          -80 -31 -35.0205078125 -32 -53 64 -19.13671875 54 38 68 13.13671875 38 18 -11 7.412109375 -11 hvcurveto
          -14 0 -11.24609375 -8.4013671875 -6.75390625 -21.0107421875 rrcurveto
          endchar
        </CharString>
</ttFont>
